<svg width="34" height="26" viewBox="0 0 34 26" fill="none" xmlns="http://www.w3.org/2000/svg">
<path d="M26.9997 5.33331H23.6664V3.66665C23.6664 2.78259 23.3152 1.93474 22.69 1.30962C22.0649 0.684502 21.2171 0.333313 20.333 0.333313H3.66634C2.78229 0.333313 1.93444 0.684502 1.30932 1.30962C0.684197 1.93474 0.333008 2.78259 0.333008 3.66665V20.3333H3.66634C3.66634 20.9899 3.79567 21.6401 4.04695 22.2467C4.29822 22.8534 4.66652 23.4046 5.13081 23.8688C5.5951 24.3331 6.1463 24.7014 6.75293 24.9527C7.35955 25.204 8.00974 25.3333 8.66634 25.3333C9.32295 25.3333 9.97313 25.204 10.5798 24.9527C11.1864 24.7014 11.7376 24.3331 12.2019 23.8688C12.6662 23.4046 13.0345 22.8534 13.2857 22.2467C13.537 21.6401 13.6663 20.9899 13.6663 20.3333H20.333C20.333 21.6594 20.8598 22.9312 21.7975 23.8688C22.7352 24.8065 24.0069 25.3333 25.333 25.3333C26.6591 25.3333 27.9309 24.8065 28.8686 23.8688C29.8062 22.9312 30.333 21.6594 30.333 20.3333H33.6664V12L26.9997 5.33331ZM8.66634 22.8333C8.33793 22.8332 8.01275 22.7684 7.70938 22.6426C7.40601 22.5168 7.13038 22.3325 6.89823 22.1002C6.66609 21.8679 6.48197 21.5922 6.35639 21.2887C6.23081 20.9853 6.16623 20.6601 6.16634 20.3316C6.16645 20.0032 6.23125 19.6781 6.35703 19.3747C6.48281 19.0713 6.66711 18.7957 6.89941 18.5635C7.13171 18.3314 7.40746 18.1473 7.71092 18.0217C8.01438 17.8961 8.3396 17.8315 8.66801 17.8316C9.33127 17.8319 9.96728 18.0956 10.4361 18.5647C10.905 19.0339 11.1682 19.67 11.168 20.3333C11.1678 20.9966 10.9041 21.6326 10.4349 22.1014C9.96579 22.5703 9.32961 22.8335 8.66634 22.8333ZM3.66634 15.3333V3.66665H20.333V15.3333H3.66634ZM25.333 22.8333C25.0046 22.8332 24.6794 22.7684 24.3761 22.6426C24.0727 22.5168 23.7971 22.3325 23.5649 22.1002C23.3328 21.8679 23.1486 21.5922 23.0231 21.2887C22.8975 20.9853 22.8329 20.6601 22.833 20.3316C22.8331 20.0032 22.8979 19.6781 23.0237 19.3747C23.1495 19.0713 23.3338 18.7957 23.5661 18.5635C23.7984 18.3314 24.0741 18.1473 24.3776 18.0217C24.6811 17.8961 25.0063 17.8315 25.3347 17.8316C25.9979 17.8319 26.634 18.0956 27.1028 18.5647C27.5716 19.0339 27.8349 19.67 27.8347 20.3333C27.8345 20.9966 27.5708 21.6326 27.1016 22.1014C26.6325 22.5703 25.9963 22.8335 25.333 22.8333Z" fill="white"/>
</svg>
