<svg width="20" height="34" viewBox="0 0 20 34" fill="none" xmlns="http://www.w3.org/2000/svg">
<path d="M16.6647 11.1667H19.998C19.998 6.43832 15.4064 4.28165 11.6647 3.78498V0.333313H8.33138V3.78498C4.58971 4.28165 -0.00195312 6.43832 -0.00195312 11.1667C-0.00195312 15.6767 4.44138 18.0217 8.33138 18.55V26.8333C5.91805 26.415 3.33138 25.1267 3.33138 22.8333H-0.00195312C-0.00195312 27.1483 4.03971 29.6983 8.33138 30.2267V33.6667H11.6647V30.2167C15.4064 29.72 19.998 27.5617 19.998 22.8333C19.998 18.105 15.4064 15.9483 11.6647 15.4517V7.16665C13.8814 7.56498 16.6647 8.73498 16.6647 11.1667ZM3.33138 11.1667C3.33138 8.73498 6.11471 7.56498 8.33138 7.16665V15.165C6.04638 14.7433 3.33138 13.495 3.33138 11.1667ZM16.6647 22.8333C16.6647 25.265 13.8814 26.435 11.6647 26.8333V18.8333C13.8814 19.2317 16.6647 20.4017 16.6647 22.8333Z" fill="white"/>
</svg>
