<svg width="30" height="34" viewBox="0 0 30 34" fill="none" xmlns="http://www.w3.org/2000/svg">
<path d="M13.83 0.658326C14.4877 0.412246 15.2063 0.380165 15.8833 0.56666L16.17 0.658326L27.8367 5.03333C28.4282 5.25514 28.9445 5.6405 29.3255 6.1445C29.7064 6.64849 29.9363 7.25037 29.9883 7.87999L30 8.15499V17.0933C29.9999 19.794 29.2707 22.4446 27.8893 24.7653C26.508 27.086 24.5257 28.9907 22.1517 30.2783L21.7083 30.51L16.1183 33.305C15.8105 33.4587 15.4743 33.5472 15.1308 33.5649C14.7872 33.5827 14.4437 33.5294 14.1217 33.4083L13.8817 33.305L8.29167 30.51C5.87602 29.3021 3.83129 27.4645 2.37334 25.191C0.915388 22.9175 0.0983009 20.2926 0.00833352 17.5933L0 17.0933V8.15499C9.69175e-06 7.52354 0.179378 6.90508 0.517223 6.37161C0.855068 5.83814 1.33749 5.4116 1.90833 5.14166L2.16333 5.03333L13.83 0.658326ZM15 3.77999L3.33333 8.15499V17.0933C3.33338 19.185 3.89576 21.2382 4.96159 23.038C6.02743 24.8377 7.55752 26.3178 9.39167 27.3233L9.78333 27.5283L15 30.1367L20.2167 27.5283C22.0879 26.5929 23.6731 25.1715 24.8064 23.4131C25.9397 21.6547 26.5794 19.6238 26.6583 17.5333L26.6667 17.0933V8.15499L15 3.77999ZM13.5717 10.5867C13.7903 10.2216 14.1402 9.95406 14.5498 9.83875C14.9593 9.72343 15.3975 9.76911 15.7744 9.96643C16.1514 10.1638 16.4386 10.4978 16.5772 10.9C16.7158 11.3023 16.6954 11.7423 16.52 12.13L16.4283 12.3017L14.6117 15.335H18.3033C19.5467 15.335 20.3383 16.6217 19.8367 17.7133L19.7467 17.8833L16.43 23.4133C16.2133 23.7823 15.863 24.0537 15.4517 24.1715C15.0403 24.2893 14.5994 24.2443 14.2203 24.046C13.8412 23.8477 13.5529 23.5111 13.415 23.106C13.2772 22.7009 13.3005 22.2584 13.48 21.87L13.5717 21.6983L15.3883 18.6667H11.6967C11.4151 18.6667 11.1381 18.5961 10.8909 18.4614C10.6437 18.3266 10.4343 18.1321 10.2817 17.8955C10.1292 17.6588 10.0384 17.3877 10.0177 17.107C9.99703 16.8262 10.0471 16.5447 10.1633 16.2883L10.2533 16.1167L13.5717 10.5867Z" fill="white"/>
</svg>
